<?xml version="1.0" encoding="UTF-8" standalone="no"?>
<!DOCTYPE svg PUBLIC "-//W3C//DTD SVG 1.1//EN" "http://www.w3.org/Graphics/SVG/1.1/DTD/svg11.dtd">
<svg width="100%" height="100%" viewBox="0 0 2521 154" version="1.1" xmlns="http://www.w3.org/2000/svg" xmlns:xlink="http://www.w3.org/1999/xlink" xml:space="preserve" xmlns:serif="http://www.serif.com/" style="fill-rule:evenodd;clip-rule:evenodd;stroke-linecap:round;stroke-linejoin:round;stroke-miterlimit:1.5;">
    <g transform="matrix(1,0,0,1,424.478,-699.751)">
        <path d="M2095.24,791.429C2095.24,791.429 1952.38,725.714 1843.81,720C1735.24,714.286 1553.57,771.068 1411.43,776.19C1305.71,780 1342.5,710.509 1365.71,702.857C1395.69,692.98 1437.14,714.286 1431.43,745.714C1419.67,810.396 1142.86,846.667 1080,822.857C1012.07,797.125 914.286,739.048 805.714,772.381C697.143,805.714 552.381,884.762 409.524,838.095C266.667,791.429 261.905,711.429 80,721.905C-101.905,732.381 -343.81,851.429 -423.81,833.333" style="fill:none;stroke:black;stroke-width:1.34px;stroke-dasharray:4.01,2.67,0,0,0,0;"/>
    </g>
</svg>
